<svg width="180" height="180" viewBox="0 0 180 180" xmlns="http://www.w3.org/2000/svg">
  <style>
    @media (prefers-color-scheme: light) {
      .background { fill: black; }
      .ghost { fill: white; }
      .eyes { fill: black; }
    }
    @media (prefers-color-scheme: dark) {
      .background { fill: white; }
      .ghost { fill: black; }
      .eyes { fill: white; }
    }
  </style>
  <rect class="background" width="180" height="180" rx="36"/>
  <g transform="translate(30,28)">
    <path class="ghost" d="M60 0c33 0 60 24 60 54v58c0 6-6 9-11 6l-9-5c-4-2-8-1-10 2l-6 9c-3 4-10 4-13 0l-6-9c-2-3-6-4-10-2l-9 5c-5 3-11 0-11-6V54C35 24 27 0 60 0z"/>
    <circle class="eyes" cx="45" cy="42" r="7"/>
    <circle class="eyes" cx="75" cy="42" r="7"/>
    <path class="eyes" d="M48 66c6 6 18 6 24 0" fill="none" stroke-width="5" stroke="currentColor"/>
  </g>
</svg>
